<svg version="1.2" xmlns="http://www.w3.org/2000/svg" viewBox="0 0 875 710" width="875" height="710">
	<title>undraw_hacker_mind_-6-y85 (1)-svg</title>
	<style>
		.s0 { fill: #3f3d56 } 
		.s1 { fill: #16a34a } 
		.s2 { fill: #2f2e41 } 
		.s3 { fill: #8985a8 } 
		.s4 { opacity: .1;fill: #000000 } 
		.s5 { fill: #f2f2f2 } 
		.s6 { fill: #ffb8b8 } 
	</style>
	<path id="Layer" class="s0" d="m0 0h875v470.7h-875z"/>
	<path id="Layer" class="s1" d="m158.2 66.4h7.7v12.3h-7.7z"/>
	<path id="Layer" class="s1" d="m184.4 63.3h7.7v12.3h-7.7z"/>
	<path id="Layer" class="s1" d="m198.3 63.3h7.7v12.3h-7.7z"/>
	<path id="Layer" class="s1" d="m198.3 100.3h7.7v12.4h-7.7z"/>
	<path id="Layer" class="s1" d="m213.7 81.8h7.8v12.3h-7.8z"/>
	<path id="Layer" class="s1" d="m213.7 101.9h7.8v12.3h-7.8z"/>
	<path id="Layer" class="s1" d="m198.3 140.4h7.7v12.4h-7.7z"/>
	<path id="Layer" class="s1" d="m213.7 160.5h7.8v12.3h-7.8z"/>
	<path id="Layer" class="s1" d="m198.3 236.1h7.7v12.4h-7.7z"/>
	<path id="Layer" class="s1" d="m184.4 160.5h7.7v12.3h-7.7z"/>
	<path id="Layer" class="s1" d="m158.2 86.4h7.7v12.4h-7.7z"/>
	<path id="Layer" class="s1" d="m158.2 279.3h7.7v12.4h-7.7z"/>
	<path id="Layer" class="s1" d="m158.2 319.4h7.7v12.4h-7.7z"/>
	<path id="Layer" class="s1" d="m158.2 339.5h7.7v12.4h-7.7z"/>
	<path id="Layer" class="s1" d="m155.1 108h10.8v1.6h-10.8z"/>
	<path id="Layer" class="s1" d="m196.8 126.5h10.8v1.6h-10.8z"/>
	<path id="Layer" class="s1" d="m155.1 206.8h10.8v1.5h-10.8z"/>
	<path id="Layer" class="s1" d="m155.1 223.8h10.8v1.5h-10.8z"/>
	<path id="Layer" class="s1" d="m196.8 322.5h10.8v1.6h-10.8z"/>
	<path id="Layer" class="s1" d="m184.4 359.6h10.8v1.5h-10.8z"/>
	<path id="Layer" class="s1" d="m158.2 121.9v3.1h3.1v6.2h-3.1v3.1h7.7v-12.4h-7.7z"/>
	<path id="Layer" class="s1" d="m184.4 100.3v3.1h3.1v6.2h-3.1v3.1h7.7v-12.4h-7.7z"/>
	<path id="Layer" class="s1" d="m213.7 120.4v3.1h3.1v6.1h-3.1v3.1h7.8v-12.3h-7.8z"/>
	<path id="Layer" class="s1" d="m213.7 180.6v3h3.1v6.2h-3.1v3.1h7.8v-12.3h-7.8z"/>
	<path id="Layer" class="s1" d="m213.7 200.6v3.1h3.1v6.2h-3.1v3.1h7.8v-12.4h-7.8z"/>
	<path id="Layer" class="s1" d="m213.7 138.9v3.1h3.1v6.1h-3.1v3.1h7.8v-12.3h-7.8z"/>
	<path id="Layer" class="s1" d="m198.3 81.8v3.1h3.1v6.1h-3.1v3.1h7.7v-12.3h-7.7z"/>
	<path id="Layer" class="s1" d="m198.3 180.6h7.7v12.3h-7.7z"/>
	<path id="Layer" class="s1" d="m198.3 217.6h7.7v12.3h-7.7z"/>
	<path id="Layer" class="s1" d="m198.3 199.1v3.1h3.1v6.1h-3.1v3.1h7.7v-12.3h-7.7z"/>
	<path id="Layer" class="s1" d="m184.4 120.4v3.1h3.1v6.1h-3.1v3.1h7.7v-12.3h-7.7z"/>
	<path id="Layer" class="s1" d="m184.4 140.4v3.1h3.1v6.2h-3.1v3.1h7.7v-12.4h-7.7z"/>
	<path id="Layer" class="s1" d="m184.4 200.6h7.7v12.4h-7.7z"/>
	<path id="Layer" class="s1" d="m184.4 180.6v3h3.1v6.2h-3.1v3.1h7.7v-12.3h-7.7z"/>
	<path id="Layer" class="s1" d="m184.4 240.7h7.7v12.4h-7.7z"/>
	<path id="Layer" class="s1" d="m184.4 220.7v3.1h3.1v6.1h-3.1v3.1h7.7v-12.3h-7.7z"/>
	<path id="Layer" class="s1" d="m184.4 280.9h7.7v12.3h-7.7z"/>
	<path id="Layer" class="s1" d="m198.3 277.8h7.7v12.3h-7.7z"/>
	<path id="Layer" class="s1" d="m184.4 260.8v3.1h3.1v6.2h-3.1v3h7.7v-12.3h-7.7z"/>
	<path id="Layer" class="s1" d="m213.7 260.8v3.1h3.1v6.2h-3.1v3h7.8v-12.3h-7.8z"/>
	<path id="Layer" class="s1" d="m292.4 81.8h7.8v12.3h-7.8z"/>
	<path id="Layer" class="s1" d="m292.4 101.9h7.8v12.3h-7.8z"/>
	<path id="Layer" class="s1" d="m292.4 160.5h7.8v12.3h-7.8z"/>
	<path id="Layer" class="s1" d="m292.4 120.4v3.1h3.1v6.1h-3.1v3.1h7.8v-12.3h-7.8z"/>
	<path id="Layer" class="s1" d="m292.4 180.6v3h3.1v6.2h-3.1v3.1h7.8v-12.3h-7.8z"/>
	<path id="Layer" class="s1" d="m292.4 200.6v3.1h3.1v6.2h-3.1v3.1h7.8v-12.4h-7.8z"/>
	<path id="Layer" class="s1" d="m292.4 138.9v3.1h3.1v6.1h-3.1v3.1h7.8v-12.3h-7.8z"/>
	<path id="Layer" class="s1" d="m292.4 260.8v3.1h3.1v6.2h-3.1v3h7.8v-12.3h-7.8z"/>
	<path id="Layer" class="s1" d="m184.4 321h7.7v12.3h-7.7z"/>
	<path id="Layer" class="s1" d="m198.3 297.8h7.7v12.4h-7.7z"/>
	<path id="Layer" class="s1" d="m184.4 373.5h7.7v12.3h-7.7z"/>
	<path id="Layer" class="s1" d="m198.3 336.4h7.7v12.4h-7.7z"/>
	<path id="Layer" class="s1" d="m184.4 300.9v3.1h3.1v6.2h-3.1v3.1h7.7v-12.4h-7.7z"/>
	<path id="Layer" class="s1" d="m184.4 395.1v3h3.1v6.2h-3.1v3.1h7.7v-12.3h-7.7z"/>
	<path id="Layer" class="s1" d="m269.3 63.3h7.7v12.3h-7.7z"/>
	<path id="Layer" class="s1" d="m269.3 160.5h7.7v12.3h-7.7z"/>
	<path id="Layer" class="s1" d="m269.3 359.6h10.8v1.5h-10.8z"/>
	<path id="Layer" class="s1" d="m269.3 100.3v3.1h3.1v6.2h-3.1v3.1h7.7v-12.4h-7.7z"/>
	<path id="Layer" class="s1" d="m269.3 120.4v3.1h3.1v6.1h-3.1v3.1h7.7v-12.3h-7.7z"/>
	<path id="Layer" class="s1" d="m269.3 140.4v3.1h3.1v6.2h-3.1v3.1h7.7v-12.4h-7.7z"/>
	<path id="Layer" class="s1" d="m269.3 200.6h7.7v12.4h-7.7z"/>
	<path id="Layer" class="s1" d="m269.3 180.6v3h3.1v6.2h-3.1v3.1h7.7v-12.3h-7.7z"/>
	<path id="Layer" class="s1" d="m269.3 240.7h7.7v12.4h-7.7z"/>
	<path id="Layer" class="s1" d="m269.3 220.7v3.1h3.1v6.1h-3.1v3.1h7.7v-12.3h-7.7z"/>
	<path id="Layer" class="s1" d="m269.3 280.9h7.7v12.3h-7.7z"/>
	<path id="Layer" class="s1" d="m269.3 260.8v3.1h3.1v6.2h-3.1v3h7.7v-12.3h-7.7z"/>
	<path id="Layer" class="s1" d="m269.3 321h7.7v12.3h-7.7z"/>
	<path id="Layer" class="s1" d="m269.3 373.5h7.7v12.3h-7.7z"/>
	<path id="Layer" class="s1" d="m269.3 300.9v3.1h3.1v6.2h-3.1v3.1h7.7v-12.4h-7.7z"/>
	<path id="Layer" class="s1" d="m269.3 395.1v3h3.1v6.2h-3.1v3.1h7.7v-12.3h-7.7z"/>
	<path id="Layer" class="s1" d="m306.3 63.3h7.7v12.3h-7.7z"/>
	<path id="Layer" class="s1" d="m306.3 160.5h7.7v12.3h-7.7z"/>
	<path id="Layer" class="s1" d="m306.3 359.6h10.8v1.5h-10.8z"/>
	<path id="Layer" class="s1" d="m306.3 100.3v3.1h3.1v6.2h-3.1v3.1h7.7v-12.4h-7.7z"/>
	<path id="Layer" class="s1" d="m306.3 120.4v3.1h3.1v6.1h-3.1v3.1h7.7v-12.3h-7.7z"/>
	<path id="Layer" class="s1" d="m306.3 140.4v3.1h3.1v6.2h-3.1v3.1h7.7v-12.4h-7.7z"/>
	<path id="Layer" class="s1" d="m306.3 200.6h7.7v12.4h-7.7z"/>
	<path id="Layer" class="s1" d="m306.3 180.6v3h3.1v6.2h-3.1v3.1h7.7v-12.3h-7.7z"/>
	<path id="Layer" class="s1" d="m306.3 240.7h7.7v12.4h-7.7z"/>
	<path id="Layer" class="s1" d="m306.3 220.7v3.1h3.1v6.1h-3.1v3.1h7.7v-12.3h-7.7z"/>
	<path id="Layer" class="s1" d="m306.3 280.9h7.7v12.3h-7.7z"/>
	<path id="Layer" class="s1" d="m306.3 260.8v3.1h3.1v6.2h-3.1v3h7.7v-12.3h-7.7z"/>
	<path id="Layer" class="s1" d="m306.3 321h7.7v12.3h-7.7z"/>
	<path id="Layer" class="s1" d="m306.3 373.5h7.7v12.3h-7.7z"/>
	<path id="Layer" class="s1" d="m306.3 300.9v3.1h3.1v6.2h-3.1v3.1h7.7v-12.4h-7.7z"/>
	<path id="Layer" class="s1" d="m306.3 395.1v3h3.1v6.2h-3.1v3.1h7.7v-12.3h-7.7z"/>
	<path id="Layer" class="s1" d="m198.3 373.5v3h3.1v6.2h-3.1v3.1h7.7v-12.3h-7.7z"/>
	<path id="Layer" class="s1" d="m198.3 393.5v3.1h3.1v6.2h-3.1v3.1h7.7v-12.4h-7.7z"/>
	<path id="Layer" class="s1" d="m158.2 160.5v3.1h3.1v6.2h-3.1v3h7.7v-12.3h-7.7z"/>
	<path id="Layer" class="s1" d="m158.2 239.2v3.1h3.1v6.2h-3.1v3h7.7v-12.3h-7.7z"/>
	<path id="Layer" class="s1" d="m158.2 259.3v3h3.1v6.2h-3.1v3.1h7.7v-12.3h-7.7z"/>
	<path id="Layer" class="s1" d="m158.2 299.4v3.1h3.1v6.1h-3.1v3.1h7.7v-12.3h-7.7z"/>
	<path id="Layer" class="s1" d="m158.2 356.5v3.1h3.1v6.1h-3.1v3.1h7.7v-12.3h-7.7z"/>
	<path id="Layer" class="s1" d="m158.2 373.5v3h3.1v6.2h-3.1v3.1h7.7v-12.3h-7.7z"/>
	<path id="Layer" class="s1" d="m238.4 66.4h7.7v12.3h-7.7z"/>
	<path id="Layer" class="s1" d="m238.4 86.4h7.7v12.4h-7.7z"/>
	<path id="Layer" class="s1" d="m235.3 108h10.8v1.6h-10.8z"/>
	<path id="Layer" class="s1" d="m235.3 206.8h10.8v1.5h-10.8z"/>
	<path id="Layer" class="s1" d="m235.3 223.8h10.8v1.5h-10.8z"/>
	<path id="Layer" class="s1" d="m238.4 121.9v3.1h3.1v6.2h-3.1v3.1h7.7v-12.4h-7.7z"/>
	<path id="Layer" class="s1" d="m238.4 160.5v3.1h3.1v6.2h-3.1v3h7.7v-12.3h-7.7z"/>
	<path id="Layer" class="s1" d="m238.4 239.2v3.1h3.1v6.2h-3.1v3h7.7v-12.3h-7.7z"/>
	<path id="Layer" class="s1" d="m326.4 200.6h7.7v12.4h-7.7z"/>
	<path id="Layer" class="s1" d="m326.4 220.7h7.7v12.3h-7.7z"/>
	<path id="Layer" class="s1" d="m323.3 242.3h10.8v1.5h-10.8z"/>
	<path id="Layer" class="s1" d="m323.3 341h10.8v1.6h-10.8z"/>
	<path id="Layer" class="s1" d="m323.3 358h10.8v1.6h-10.8z"/>
	<path id="Layer" class="s1" d="m326.4 256.2v3.1h3.1v6.1h-3.1v3.1h7.7v-12.3h-7.7z"/>
	<path id="Layer" class="s1" d="m326.4 294.8v3h3.1v6.2h-3.1v3.1h7.7v-12.3h-7.7z"/>
	<path id="Layer" class="s1" d="m326.4 373.5v3h3.1v6.2h-3.1v3.1h7.7v-12.3h-7.7z"/>
	<path id="Layer" class="s1" d="m351.1 66.4h7.7v12.3h-7.7z"/>
	<path id="Layer" class="s1" d="m377.3 63.3h7.7v12.3h-7.7z"/>
	<path id="Layer" class="s1" d="m391.2 63.3h7.7v12.3h-7.7z"/>
	<path id="Layer" class="s1" d="m391.2 100.3h7.7v12.4h-7.7z"/>
	<path id="Layer" class="s1" d="m406.6 81.8h7.8v12.3h-7.8z"/>
	<path id="Layer" class="s1" d="m406.6 101.9h7.8v12.3h-7.8z"/>
	<path id="Layer" class="s1" d="m391.2 140.4h7.7v12.4h-7.7z"/>
	<path id="Layer" class="s1" d="m406.6 160.5h7.8v12.3h-7.8z"/>
	<path id="Layer" class="s1" d="m391.2 236.1h7.7v12.4h-7.7z"/>
	<path id="Layer" class="s1" d="m377.3 160.5h7.7v12.3h-7.7z"/>
	<path id="Layer" class="s1" d="m351.1 86.4h7.7v12.4h-7.7z"/>
	<path id="Layer" class="s1" d="m351.1 279.3h7.7v12.4h-7.7z"/>
	<path id="Layer" class="s1" d="m351.1 319.4h7.7v12.4h-7.7z"/>
	<path id="Layer" class="s1" d="m351.1 339.5h7.7v12.4h-7.7z"/>
	<path id="Layer" class="s1" d="m348 108h10.8v1.6h-10.8z"/>
	<path id="Layer" class="s1" d="m389.7 126.5h10.8v1.6h-10.8z"/>
	<path id="Layer" class="s1" d="m348 206.8h10.8v1.5h-10.8z"/>
	<path id="Layer" class="s1" d="m348 223.8h10.8v1.5h-10.8z"/>
	<path id="Layer" class="s1" d="m389.7 322.5h10.8v1.6h-10.8z"/>
	<path id="Layer" class="s1" d="m377.3 359.6h10.8v1.5h-10.8z"/>
	<path id="Layer" class="s1" d="m351.1 121.9v3.1h3.1v6.2h-3.1v3.1h7.7v-12.4h-7.7z"/>
	<path id="Layer" class="s1" d="m377.3 100.3v3.1h3.1v6.2h-3.1v3.1h7.7v-12.4h-7.7z"/>
	<path id="Layer" class="s1" d="m406.6 120.4v3.1h3.1v6.1h-3.1v3.1h7.8v-12.3h-7.8z"/>
	<path id="Layer" class="s1" d="m406.6 180.6v3h3.1v6.2h-3.1v3.1h7.8v-12.3h-7.8z"/>
	<path id="Layer" class="s1" d="m406.6 200.6v3.1h3.1v6.2h-3.1v3.1h7.8v-12.4h-7.8z"/>
	<path id="Layer" class="s1" d="m406.6 138.9v3.1h3.1v6.1h-3.1v3.1h7.8v-12.3h-7.8z"/>
	<path id="Layer" class="s1" d="m391.2 81.8v3.1h3.1v6.1h-3.1v3.1h7.7v-12.3h-7.7z"/>
	<path id="Layer" class="s1" d="m391.2 180.6h7.7v12.3h-7.7z"/>
	<path id="Layer" class="s1" d="m391.2 217.6h7.7v12.3h-7.7z"/>
	<path id="Layer" class="s1" d="m391.2 199.1v3.1h3.1v6.1h-3.1v3.1h7.7v-12.3h-7.7z"/>
	<path id="Layer" class="s1" d="m377.3 120.4v3.1h3.1v6.1h-3.1v3.1h7.7v-12.3h-7.7z"/>
	<path id="Layer" class="s1" d="m377.3 140.4v3.1h3.1v6.2h-3.1v3.1h7.7v-12.4h-7.7z"/>
	<path id="Layer" class="s1" d="m377.3 200.6h7.7v12.4h-7.7z"/>
	<path id="Layer" class="s1" d="m377.3 180.6v3h3.1v6.2h-3.1v3.1h7.7v-12.3h-7.7z"/>
	<path id="Layer" class="s1" d="m377.3 240.7h7.7v12.4h-7.7z"/>
	<path id="Layer" class="s1" d="m377.3 220.7v3.1h3.1v6.1h-3.1v3.1h7.7v-12.3h-7.7z"/>
	<path id="Layer" class="s1" d="m377.3 280.9h7.7v12.3h-7.7z"/>
	<path id="Layer" class="s1" d="m391.2 277.8h7.7v12.3h-7.7z"/>
	<path id="Layer" class="s1" d="m377.3 260.8v3.1h3.1v6.2h-3.1v3h7.7v-12.3h-7.7z"/>
	<path id="Layer" class="s1" d="m406.6 260.8v3.1h3.1v6.2h-3.1v3h7.8v-12.3h-7.8z"/>
	<path id="Layer" class="s1" d="m485.3 81.8h7.8v12.3h-7.8z"/>
	<path id="Layer" class="s1" d="m485.3 101.9h7.8v12.3h-7.8z"/>
	<path id="Layer" class="s1" d="m485.3 160.5h7.8v12.3h-7.8z"/>
	<path id="Layer" class="s1" d="m485.3 120.4v3.1h3.1v6.1h-3.1v3.1h7.8v-12.3h-7.8z"/>
	<path id="Layer" class="s1" d="m485.3 180.6v3h3.1v6.2h-3.1v3.1h7.8v-12.3h-7.8z"/>
	<path id="Layer" class="s1" d="m485.3 200.6v3.1h3.1v6.2h-3.1v3.1h7.8v-12.4h-7.8z"/>
	<path id="Layer" class="s1" d="m485.3 138.9v3.1h3.1v6.1h-3.1v3.1h7.8v-12.3h-7.8z"/>
	<path id="Layer" class="s1" d="m485.3 260.8v3.1h3.1v6.2h-3.1v3h7.8v-12.3h-7.8z"/>
	<path id="Layer" class="s1" d="m377.3 321h7.7v12.3h-7.7z"/>
	<path id="Layer" class="s1" d="m391.2 297.8h7.7v12.4h-7.7z"/>
	<path id="Layer" class="s1" d="m377.3 373.5h7.7v12.3h-7.7z"/>
	<path id="Layer" class="s1" d="m391.2 336.4h7.7v12.4h-7.7z"/>
	<path id="Layer" class="s1" d="m377.3 300.9v3.1h3.1v6.2h-3.1v3.1h7.7v-12.4h-7.7z"/>
	<path id="Layer" class="s1" d="m377.3 395.1v3h3.1v6.2h-3.1v3.1h7.7v-12.3h-7.7z"/>
	<path id="Layer" class="s1" d="m462.2 63.3h7.7v12.3h-7.7z"/>
	<path id="Layer" class="s1" d="m462.2 160.5h7.7v12.3h-7.7z"/>
	<path id="Layer" class="s1" d="m462.2 359.6h10.8v1.5h-10.8z"/>
	<path id="Layer" class="s1" d="m462.2 100.3v3.1h3.1v6.2h-3.1v3.1h7.7v-12.4h-7.7z"/>
	<path id="Layer" class="s1" d="m462.2 120.4v3.1h3.1v6.1h-3.1v3.1h7.7v-12.3h-7.7z"/>
	<path id="Layer" class="s1" d="m462.2 140.4v3.1h3.1v6.2h-3.1v3.1h7.7v-12.4h-7.7z"/>
	<path id="Layer" class="s1" d="m462.2 200.6h7.7v12.4h-7.7z"/>
	<path id="Layer" class="s1" d="m462.2 180.6v3h3.1v6.2h-3.1v3.1h7.7v-12.3h-7.7z"/>
	<path id="Layer" class="s1" d="m462.2 240.7h7.7v12.4h-7.7z"/>
	<path id="Layer" class="s1" d="m462.2 220.7v3.1h3.1v6.1h-3.1v3.1h7.7v-12.3h-7.7z"/>
	<path id="Layer" class="s1" d="m462.2 280.9h7.7v12.3h-7.7z"/>
	<path id="Layer" class="s1" d="m462.2 260.8v3.1h3.1v6.2h-3.1v3h7.7v-12.3h-7.7z"/>
	<path id="Layer" class="s1" d="m462.2 321h7.7v12.3h-7.7z"/>
	<path id="Layer" class="s1" d="m462.2 373.5h7.7v12.3h-7.7z"/>
	<path id="Layer" class="s1" d="m462.2 300.9v3.1h3.1v6.2h-3.1v3.1h7.7v-12.4h-7.7z"/>
	<path id="Layer" class="s1" d="m462.2 395.1v3h3.1v6.2h-3.1v3.1h7.7v-12.3h-7.7z"/>
	<path id="Layer" class="s1" d="m499.2 63.3h7.7v12.3h-7.7z"/>
	<path id="Layer" class="s1" d="m499.2 160.5h7.7v12.3h-7.7z"/>
	<path id="Layer" class="s1" d="m499.2 359.6h10.8v1.5h-10.8z"/>
	<path id="Layer" class="s1" d="m499.2 100.3v3.1h3.1v6.2h-3.1v3.1h7.7v-12.4h-7.7z"/>
	<path id="Layer" class="s1" d="m499.2 120.4v3.1h3.1v6.1h-3.1v3.1h7.7v-12.3h-7.7z"/>
	<path id="Layer" class="s1" d="m499.2 140.4v3.1h3.1v6.2h-3.1v3.1h7.7v-12.4h-7.7z"/>
	<path id="Layer" class="s1" d="m499.2 200.6h7.7v12.4h-7.7z"/>
	<path id="Layer" class="s1" d="m499.2 180.6v3h3.1v6.2h-3.1v3.1h7.7v-12.3h-7.7z"/>
	<path id="Layer" class="s1" d="m499.2 240.7h7.7v12.4h-7.7z"/>
	<path id="Layer" class="s1" d="m499.2 220.7v3.1h3.1v6.1h-3.1v3.1h7.7v-12.3h-7.7z"/>
	<path id="Layer" class="s1" d="m499.2 280.9h7.7v12.3h-7.7z"/>
	<path id="Layer" class="s1" d="m499.2 260.8v3.1h3.1v6.2h-3.1v3h7.7v-12.3h-7.7z"/>
	<path id="Layer" class="s1" d="m499.2 321h7.7v12.3h-7.7z"/>
	<path id="Layer" class="s1" d="m499.2 373.5h7.7v12.3h-7.7z"/>
	<path id="Layer" class="s1" d="m499.2 300.9v3.1h3.1v6.2h-3.1v3.1h7.7v-12.4h-7.7z"/>
	<path id="Layer" class="s1" d="m499.2 395.1v3h3.1v6.2h-3.1v3.1h7.7v-12.3h-7.7z"/>
	<path id="Layer" class="s1" d="m391.2 373.5v3h3.1v6.2h-3.1v3.1h7.7v-12.3h-7.7z"/>
	<path id="Layer" class="s1" d="m391.2 393.5v3.1h3.1v6.2h-3.1v3.1h7.7v-12.4h-7.7z"/>
	<path id="Layer" class="s1" d="m351.1 160.5v3.1h3.1v6.2h-3.1v3h7.7v-12.3h-7.7z"/>
	<path id="Layer" class="s1" d="m351.1 239.2v3.1h3.1v6.2h-3.1v3h7.7v-12.3h-7.7z"/>
	<path id="Layer" class="s1" d="m351.1 259.3v3h3.1v6.2h-3.1v3.1h7.7v-12.3h-7.7z"/>
	<path id="Layer" class="s1" d="m351.1 299.4v3.1h3.1v6.1h-3.1v3.1h7.7v-12.3h-7.7z"/>
	<path id="Layer" class="s1" d="m351.1 356.5v3.1h3.1v6.1h-3.1v3.1h7.7v-12.3h-7.7z"/>
	<path id="Layer" class="s1" d="m351.1 373.5v3h3.1v6.2h-3.1v3.1h7.7v-12.3h-7.7z"/>
	<path id="Layer" class="s1" d="m431.3 66.4h7.7v12.3h-7.7z"/>
	<path id="Layer" class="s1" d="m431.3 86.4h7.7v12.4h-7.7z"/>
	<path id="Layer" class="s1" d="m428.2 108h10.8v1.6h-10.8z"/>
	<path id="Layer" class="s1" d="m428.2 206.8h10.8v1.5h-10.8z"/>
	<path id="Layer" class="s1" d="m428.2 223.8h10.8v1.5h-10.8z"/>
	<path id="Layer" class="s1" d="m431.3 121.9v3.1h3.1v6.2h-3.1v3.1h7.7v-12.4h-7.7z"/>
	<path id="Layer" class="s1" d="m431.3 160.5v3.1h3.1v6.2h-3.1v3h7.7v-12.3h-7.7z"/>
	<path id="Layer" class="s1" d="m431.3 239.2v3.1h3.1v6.2h-3.1v3h7.7v-12.3h-7.7z"/>
	<path id="Layer" class="s1" d="m519.3 200.6h7.7v12.4h-7.7z"/>
	<path id="Layer" class="s1" d="m519.3 220.7h7.7v12.3h-7.7z"/>
	<path id="Layer" class="s1" d="m516.2 242.3h10.8v1.5h-10.8z"/>
	<path id="Layer" class="s1" d="m516.2 341h10.8v1.6h-10.8z"/>
	<path id="Layer" class="s1" d="m516.2 358h10.8v1.6h-10.8z"/>
	<path id="Layer" class="s1" d="m519.3 256.2v3.1h3.1v6.1h-3.1v3.1h7.7v-12.3h-7.7z"/>
	<path id="Layer" class="s1" d="m519.3 294.8v3h3.1v6.2h-3.1v3.1h7.7v-12.3h-7.7z"/>
	<path id="Layer" class="s1" d="m519.3 373.5v3h3.1v6.2h-3.1v3.1h7.7v-12.3h-7.7z"/>
	<path id="Layer" class="s1" d="m544 66.4h7.7v12.3h-7.7z"/>
	<path id="Layer" class="s1" d="m570.2 63.3h7.7v12.3h-7.7z"/>
	<path id="Layer" class="s1" d="m584.1 63.3h7.7v12.3h-7.7z"/>
	<path id="Layer" class="s1" d="m584.1 100.3h7.7v12.4h-7.7z"/>
	<path id="Layer" class="s1" d="m599.5 81.8h7.8v12.3h-7.8z"/>
	<path id="Layer" class="s1" d="m599.5 101.9h7.8v12.3h-7.8z"/>
	<path id="Layer" class="s1" d="m584.1 140.4h7.7v12.4h-7.7z"/>
	<path id="Layer" class="s1" d="m599.5 160.5h7.8v12.3h-7.8z"/>
	<path id="Layer" class="s1" d="m584.1 236.1h7.7v12.4h-7.7z"/>
	<path id="Layer" class="s1" d="m570.2 160.5h7.7v12.3h-7.7z"/>
	<path id="Layer" class="s1" d="m544 86.4h7.7v12.4h-7.7z"/>
	<path id="Layer" class="s1" d="m544 279.3h7.7v12.4h-7.7z"/>
	<path id="Layer" class="s1" d="m544 319.4h7.7v12.4h-7.7z"/>
	<path id="Layer" class="s1" d="m544 339.5h7.7v12.4h-7.7z"/>
	<path id="Layer" class="s1" d="m540.9 108h10.8v1.6h-10.8z"/>
	<path id="Layer" class="s1" d="m582.6 126.5h10.8v1.6h-10.8z"/>
	<path id="Layer" class="s1" d="m540.9 206.8h10.8v1.5h-10.8z"/>
	<path id="Layer" class="s1" d="m540.9 223.8h10.8v1.5h-10.8z"/>
	<path id="Layer" class="s1" d="m582.6 322.5h10.8v1.6h-10.8z"/>
	<path id="Layer" class="s1" d="m570.2 359.6h10.8v1.5h-10.8z"/>
	<path id="Layer" class="s1" d="m544 121.9v3.1h3.1v6.2h-3.1v3.1h7.7v-12.4h-7.7z"/>
	<path id="Layer" class="s1" d="m570.2 100.3v3.1h3.1v6.2h-3.1v3.1h7.7v-12.4h-7.7z"/>
	<path id="Layer" class="s1" d="m599.5 120.4v3.1h3.1v6.1h-3.1v3.1h7.8v-12.3h-7.8z"/>
	<path id="Layer" class="s1" d="m599.5 180.6v3h3.1v6.2h-3.1v3.1h7.8v-12.3h-7.8z"/>
	<path id="Layer" class="s1" d="m599.5 200.6v3.1h3.1v6.2h-3.1v3.1h7.8v-12.4h-7.8z"/>
	<path id="Layer" class="s1" d="m599.5 138.9v3.1h3.1v6.1h-3.1v3.1h7.8v-12.3h-7.8z"/>
	<path id="Layer" class="s1" d="m584.1 81.8v3.1h3.1v6.1h-3.1v3.1h7.7v-12.3h-7.7z"/>
	<path id="Layer" class="s1" d="m584.1 180.6h7.7v12.3h-7.7z"/>
	<path id="Layer" class="s1" d="m584.1 217.6h7.7v12.3h-7.7z"/>
	<path id="Layer" class="s1" d="m584.1 199.1v3.1h3.1v6.1h-3.1v3.1h7.7v-12.3h-7.7z"/>
	<path id="Layer" class="s1" d="m570.2 120.4v3.1h3.1v6.1h-3.1v3.1h7.7v-12.3h-7.7z"/>
	<path id="Layer" class="s1" d="m570.2 140.4v3.1h3.1v6.2h-3.1v3.1h7.7v-12.4h-7.7z"/>
	<path id="Layer" class="s1" d="m570.2 200.6h7.7v12.4h-7.7z"/>
	<path id="Layer" class="s1" d="m570.2 180.6v3h3.1v6.2h-3.1v3.1h7.7v-12.3h-7.7z"/>
	<path id="Layer" class="s1" d="m570.2 240.7h7.7v12.4h-7.7z"/>
	<path id="Layer" class="s1" d="m570.2 220.7v3.1h3.1v6.1h-3.1v3.1h7.7v-12.3h-7.7z"/>
	<path id="Layer" class="s1" d="m570.2 280.9h7.7v12.3h-7.7z"/>
	<path id="Layer" class="s1" d="m584.1 277.8h7.7v12.3h-7.7z"/>
	<path id="Layer" class="s1" d="m570.2 260.8v3.1h3.1v6.2h-3.1v3h7.7v-12.3h-7.7z"/>
	<path id="Layer" class="s1" d="m599.5 260.8v3.1h3.1v6.2h-3.1v3h7.8v-12.3h-7.8z"/>
	<path id="Layer" class="s1" d="m678.2 81.8h7.8v12.3h-7.8z"/>
	<path id="Layer" class="s1" d="m678.2 101.9h7.8v12.3h-7.8z"/>
	<path id="Layer" class="s1" d="m678.2 160.5h7.8v12.3h-7.8z"/>
	<path id="Layer" class="s1" d="m678.2 120.4v3.1h3.1v6.1h-3.1v3.1h7.8v-12.3h-7.8z"/>
	<path id="Layer" class="s1" d="m678.2 180.6v3h3.1v6.2h-3.1v3.1h7.8v-12.3h-7.8z"/>
	<path id="Layer" class="s1" d="m678.2 200.6v3.1h3.1v6.2h-3.1v3.1h7.8v-12.4h-7.8z"/>
	<path id="Layer" class="s1" d="m678.2 138.9v3.1h3.1v6.1h-3.1v3.1h7.8v-12.3h-7.8z"/>
	<path id="Layer" class="s1" d="m678.2 260.8v3.1h3.1v6.2h-3.1v3h7.8v-12.3h-7.8z"/>
	<path id="Layer" class="s1" d="m570.2 321h7.7v12.3h-7.7z"/>
	<path id="Layer" class="s1" d="m584.1 297.8h7.7v12.4h-7.7z"/>
	<path id="Layer" class="s1" d="m570.2 373.5h7.7v12.3h-7.7z"/>
	<path id="Layer" class="s1" d="m584.1 336.4h7.7v12.4h-7.7z"/>
	<path id="Layer" class="s1" d="m570.2 300.9v3.1h3.1v6.2h-3.1v3.1h7.7v-12.4h-7.7z"/>
	<path id="Layer" class="s1" d="m570.2 395.1v3h3.1v6.2h-3.1v3.1h7.7v-12.3h-7.7z"/>
	<path id="Layer" class="s1" d="m655.1 63.3h7.7v12.3h-7.7z"/>
	<path id="Layer" class="s1" d="m655.1 160.5h7.7v12.3h-7.7z"/>
	<path id="Layer" class="s1" d="m655.1 359.6h10.8v1.5h-10.8z"/>
	<path id="Layer" class="s1" d="m655.1 100.3v3.1h3.1v6.2h-3.1v3.1h7.7v-12.4h-7.7z"/>
	<path id="Layer" class="s1" d="m655.1 120.4v3.1h3.1v6.1h-3.1v3.1h7.7v-12.3h-7.7z"/>
	<path id="Layer" class="s1" d="m655.1 140.4v3.1h3.1v6.2h-3.1v3.1h7.7v-12.4h-7.7z"/>
	<path id="Layer" class="s1" d="m655.1 200.6h7.7v12.4h-7.7z"/>
	<path id="Layer" class="s1" d="m655.1 180.6v3h3.1v6.2h-3.1v3.1h7.7v-12.3h-7.7z"/>
	<path id="Layer" class="s1" d="m655.1 240.7h7.7v12.4h-7.7z"/>
	<path id="Layer" class="s1" d="m655.1 220.7v3.1h3.1v6.1h-3.1v3.1h7.7v-12.3h-7.7z"/>
	<path id="Layer" class="s1" d="m655.1 280.9h7.7v12.3h-7.7z"/>
	<path id="Layer" class="s1" d="m655.1 260.8v3.1h3.1v6.2h-3.1v3h7.7v-12.3h-7.7z"/>
	<path id="Layer" class="s1" d="m655.1 321h7.7v12.3h-7.7z"/>
	<path id="Layer" class="s1" d="m655.1 373.5h7.7v12.3h-7.7z"/>
	<path id="Layer" class="s1" d="m655.1 300.9v3.1h3.1v6.2h-3.1v3.1h7.7v-12.4h-7.7z"/>
	<path id="Layer" class="s1" d="m655.1 395.1v3h3.1v6.2h-3.1v3.1h7.7v-12.3h-7.7z"/>
	<path id="Layer" class="s1" d="m692.1 63.3h7.7v12.3h-7.7z"/>
	<path id="Layer" class="s1" d="m692.1 160.5h7.7v12.3h-7.7z"/>
	<path id="Layer" class="s1" d="m692.1 359.6h10.8v1.5h-10.8z"/>
	<path id="Layer" class="s1" d="m692.1 100.3v3.1h3.1v6.2h-3.1v3.1h7.7v-12.4h-7.7z"/>
	<path id="Layer" class="s1" d="m692.1 120.4v3.1h3.1v6.1h-3.1v3.1h7.7v-12.3h-7.7z"/>
	<path id="Layer" class="s1" d="m692.1 140.4v3.1h3.1v6.2h-3.1v3.1h7.7v-12.4h-7.7z"/>
	<path id="Layer" class="s1" d="m692.1 200.6h7.7v12.4h-7.7z"/>
	<path id="Layer" class="s1" d="m692.1 180.6v3h3.1v6.2h-3.1v3.1h7.7v-12.3h-7.7z"/>
	<path id="Layer" class="s1" d="m692.1 240.7h7.7v12.4h-7.7z"/>
	<path id="Layer" class="s1" d="m692.1 220.7v3.1h3.1v6.1h-3.1v3.1h7.7v-12.3h-7.7z"/>
	<path id="Layer" class="s1" d="m692.1 280.9h7.7v12.3h-7.7z"/>
	<path id="Layer" class="s1" d="m692.1 260.8v3.1h3.1v6.2h-3.1v3h7.7v-12.3h-7.7z"/>
	<path id="Layer" class="s1" d="m692.1 321h7.7v12.3h-7.7z"/>
	<path id="Layer" class="s1" d="m692.1 373.5h7.7v12.3h-7.7z"/>
	<path id="Layer" class="s1" d="m692.1 300.9v3.1h3.1v6.2h-3.1v3.1h7.7v-12.4h-7.7z"/>
	<path id="Layer" class="s1" d="m692.1 395.1v3h3.1v6.2h-3.1v3.1h7.7v-12.3h-7.7z"/>
	<path id="Layer" class="s1" d="m584.1 373.5v3h3.1v6.2h-3.1v3.1h7.7v-12.3h-7.7z"/>
	<path id="Layer" class="s1" d="m584.1 393.5v3.1h3.1v6.2h-3.1v3.1h7.7v-12.4h-7.7z"/>
	<path id="Layer" class="s1" d="m544 160.5v3.1h3.1v6.2h-3.1v3h7.7v-12.3h-7.7z"/>
	<path id="Layer" class="s1" d="m544 239.2v3.1h3.1v6.2h-3.1v3h7.7v-12.3h-7.7z"/>
	<path id="Layer" class="s1" d="m544 259.3v3h3.1v6.2h-3.1v3.1h7.7v-12.3h-7.7z"/>
	<path id="Layer" class="s1" d="m544 299.4v3.1h3.1v6.1h-3.1v3.1h7.7v-12.3h-7.7z"/>
	<path id="Layer" class="s1" d="m544 356.5v3.1h3.1v6.1h-3.1v3.1h7.7v-12.3h-7.7z"/>
	<path id="Layer" class="s1" d="m544 373.5v3h3.1v6.2h-3.1v3.1h7.7v-12.3h-7.7z"/>
	<path id="Layer" class="s1" d="m624.2 66.4h7.7v12.3h-7.7z"/>
	<path id="Layer" class="s1" d="m624.2 86.4h7.7v12.4h-7.7z"/>
	<path id="Layer" class="s1" d="m621.1 108h10.8v1.6h-10.8z"/>
	<path id="Layer" class="s1" d="m621.1 206.8h10.8v1.5h-10.8z"/>
	<path id="Layer" class="s1" d="m621.1 223.8h10.8v1.5h-10.8z"/>
	<path id="Layer" class="s1" d="m624.2 121.9v3.1h3.1v6.2h-3.1v3.1h7.7v-12.4h-7.7z"/>
	<path id="Layer" class="s1" d="m624.2 160.5v3.1h3.1v6.2h-3.1v3h7.7v-12.3h-7.7z"/>
	<path id="Layer" class="s1" d="m624.2 239.2v3.1h3.1v6.2h-3.1v3h7.7v-12.3h-7.7z"/>
	<path id="Layer" class="s1" d="m712.2 200.6h7.7v12.4h-7.7z"/>
	<path id="Layer" class="s1" d="m712.2 220.7h7.7v12.3h-7.7z"/>
	<path id="Layer" class="s1" d="m709.1 242.3h10.8v1.5h-10.8z"/>
	<path id="Layer" class="s1" d="m709.1 341h10.8v1.6h-10.8z"/>
	<path id="Layer" class="s1" d="m709.1 358h10.8v1.6h-10.8z"/>
	<path id="Layer" class="s1" d="m712.2 256.2v3.1h3.1v6.1h-3.1v3.1h7.7v-12.3h-7.7z"/>
	<path id="Layer" class="s1" d="m712.2 294.8v3h3.1v6.2h-3.1v3.1h7.7v-12.3h-7.7z"/>
	<path id="Layer" class="s1" d="m712.2 373.5v3h3.1v6.2h-3.1v3.1h7.7v-12.3h-7.7z"/>
	<path id="Layer" class="s2" d="m214.4 707.1h444.6v1.4h-444.6z"/>
	<path id="Layer" class="s2" d="m385.5 404.3v52l7 32c0 0-1 20 0 26 1 6-1 16-7 16-6 0-9 15-9 15 0 0-2 6-7 7-5 1-5 0-5 0l-4 10-83 55 16 40c0 0 25-9 27-12 2-3 19 4 19-3 0-7 3-25 9-26 6-1 56-24 56-24 0 0 26-29 28-40 2-11 11-42 11-42l25 42v84l-4 45 44-6c0 0-4-28 0-32 4-4 10-52 6-58-4-6 2-33 0-37-2-4-1-33-6-41-5-8-35-90-35-90z"/>
	<path id="Layer" class="s2" d="m470.5 679.3c0 0-15 25-5 28 10 3 29 0 31 0 2 0 38 1 38 1 0 0 24-5 24-12 0-7-15-7-20-8-5-1-36-13-36-13z"/>
	<path id="Layer" class="s2" d="m282.1 618.5c0 0-28.9-3.9-27.7 6.5 1.2 10.4 11.5 26.6 12.3 28.5 0.6 1.2 6.9 16.9 10.9 27q1.1 2.7 2.5 5.3 1.3 2.7 2.9 5.1 1.6 2.5 3.5 4.8 1.9 2.3 3.9 4.4c4 3.9 8.3 7.1 11.1 5.9 6.4-2.8 0.4-16.6-0.6-21.6-1.1-4.9-2.4-38.2-2.4-38.2z"/>
	<path id="Layer" class="s3" d="m483 238.8l32-74c0 0-3-7-10-6 0 0-9.5-24.5-27.5-24.5 0 0-27-15-35 0 0 0-17 15-16 29 1 14 2 24 2 24 0 0-16 2-13 10 3 8 4 8 0 11l-4 3c0 0-83 75-37 185l4 17v16c0 0 101 1 101 0 0-1-2-7 2-11 4-4 4-10 4-10 0 0-4-20-2-26 2-6 3-32-1-38-4-6-2-54-2-54l9-17-3-10-3-10z"/>
	<path id="Layer" class="s4" d="m474.5 439.3c0 0-12-33-11-39 1-6-2-18-2-18l-4-81c0 0 17-72-21-84 0 0-9.6 4.2-17.5 17.7-7.8 3.5-17.2 12.3-19.5 34.3-4 39 14 139 23 156 9 17 15 29 15 29l9.4-4.1q0.6 1.1 0.6 1.1z"/>
	<path id="Layer" class="s5" d="m480 229.8c-1.7 0-3-1.3-3-3 0-1.6 1.3-3 3-3 1.7 0 3 1.4 3 3 0 1.7-1.3 3-3 3z"/>
	<path id="Layer" class="s0" d="m479 226.8h2v47h-2z"/>
	<path id="Layer" class="s6" d="m444 442.8l8 17c0 0 18-6 18-9 0-3-8-16-8-16z"/>
	<path id="Layer" class="s3" d="m432.5 217.3c0 0-23 10-27 49-4 39 14 139 23 156 9 17 15 29 15 29l27-12c0 0-12-33-11-39 1-6-2-18-2-18l-4-81c0 0 17-72-21-84z"/>
</svg>